<svg xmlns="http://www.w3.org/2000/svg" xmlns:xlink="http://www.w3.org/1999/xlink" width="500" height="500" viewBox="0 0 500 500">
  <defs>
    <clipPath id="clip-_404">
      <rect width="500" height="500"/>
    </clipPath>
  </defs>
  <g id="_404" data-name="404" clip-path="url(#clip-_404)">
    <g id="Group_569" data-name="Group 569" transform="translate(-172.979 -121.374)">
      <g id="Group_568" data-name="Group 568" transform="translate(180 218)">
        <path id="Path_197" data-name="Path 197" d="M369.473,317.139a2.371,2.371,0,0,1,1.329-1.761.977.977,0,0,1,.52-.11c.517.062.735.706.7,1.224a3.8,3.8,0,0,1-1.114,2.345,7.119,7.119,0,0,1-2.193,1.462" transform="translate(20.391 -85.459)" fill="none" stroke="#000" stroke-miterlimit="10" stroke-width="0.5"/>
        <ellipse id="Ellipse_1" data-name="Ellipse 1" cx="242.914" cy="7.991" rx="242.914" ry="7.991" transform="translate(0 288.05)" fill="#a6a6e2" opacity="0.16"/>
        <path id="Path_169" data-name="Path 169" d="M203.412,348.73c-34.71-.518-68.6,6.981-94.463-11.122C90.59,324.76,82.677,298.845,90.728,277.934c3.83-9.948,10.936-19.488,9.552-30.057-1.837-14.03-17.022-21.406-26.979-31.458a49.435,49.435,0,0,1,12.977-78.986c8.384-4.2,17.855-5.967,26.066-10.5,19.227-10.608,27.418-33.473,41.147-50.61a90.078,90.078,0,0,1,40.1-28.457c16.929-5.966,37.9-5.845,50.52,6.921,7.4,7.488,10.681,17.968,14.793,27.661s10.068,19.655,19.926,23.354c8.752,3.284,18.47.865,27.605-1.119,16.57-3.6,34.085-5.617,50.3-.647s30.784,18.388,32.63,35.244c2.661,24.3-20.583,46.555-15.852,70.535,2.2,11.154,10.1,20.143,16.72,29.385,9.633,13.447,17.234,29.429,15.9,45.916-1.358,16.746-11.969,31.737-25.505,41.688s-29.672,15.986-46.057,19.7c-35.177,7.978-31.235,1.1-131.157,2.221" transform="translate(14.054 -44.051)" fill="#a5bbff" opacity="0.11"/>
        <g id="Group_364" data-name="Group 364" transform="translate(56.161 81.409)">
          <path id="Path_230" data-name="Path 230" d="M509.625,187.489c12.293,0,32.323,4.86,30.342,16.864-2.715,16.449-75.828,10.383-93.291,10.554-35.118.343-70.607.475-105.039,8.154-8.372,1.867-20.365,5.988-19.453,16.67.319,3.731,2.518,7.108,5.315,9.634,10.055,9.081,24.066,9.952,37.073,11.545,19.672,2.411,113.245-.8,143.833,9.227,6.024,1.975,13.55,4.522,13.8,13.127.638,21.88-53.7,20.8-70,21.218-43.5,1.11-87.056.67-130.56-.188-35.157-.694-70.426-1.308-105.526-3.577-13.085-.845-34.485-1.1-44.463-10.922-5.58-5.492-6.312-15.477,2.51-20.579,6.218-3.6,24.459-2.023,31.479-2.626,22.69-1.952,13.8-16.528-6.094-16.528" transform="translate(-167.49 -175.776)" fill="none" stroke="#abb8ec" stroke-miterlimit="10" stroke-width="1" stroke-dasharray="4" opacity="0.53"/>
          <g id="Group_357" data-name="Group 357" transform="translate(314.216)">
            <g id="Group_356" data-name="Group 356">
              <path id="Path_232" data-name="Path 232" d="M532.452,202.073a1.45,1.45,0,0,1-.479-.081l-23.4-8.187a1.454,1.454,0,0,1-.468-2.474L526.9,175.162a1.452,1.452,0,0,1,2.375.831l4.608,24.357a1.453,1.453,0,0,1-1.43,1.723Zm-22.619-9.787,22.106,7.736-4.353-23.013Z" transform="translate(-507.604 -174.81)" fill="#abb8ec"/>
            </g>
            <path id="Path_233" data-name="Path 233" d="M523.457,192.716h0a.876.876,0,0,1-.551-1.08l2.32-8.139a1.376,1.376,0,0,1,1.773-.9h0a1.375,1.375,0,0,1,.823,1.811l-3.261,7.81A.877.877,0,0,1,523.457,192.716Z" transform="translate(-508.767 -175.397)" fill="#abb8ec"/>
            <path id="Path_234" data-name="Path 234" d="M523.546,195.861a.894.894,0,1,1-.548-1.138A.893.893,0,0,1,523.546,195.861Z" transform="translate(-508.686 -176.323)" fill="#abb8ec"/>
          </g>
          <g id="Group_359" data-name="Group 359" transform="translate(11.329 57.355)">
            <g id="Group_358" data-name="Group 358">
              <path id="Path_236" data-name="Path 236" d="M196.683,246.025a.992.992,0,0,1-.241.227l-14.1,9.348a.992.992,0,0,1-1.538-.766l-1.044-16.889a.991.991,0,0,1,1.432-.95l15.148,7.541a.99.99,0,0,1,.347,1.488Zm-14.654,8.267,13.328-8.834-14.313-7.125Z" transform="translate(-179.753 -236.893)" fill="#abb8ec"/>
            </g>
            <path id="Path_237" data-name="Path 237" d="M187.321,247.8h0a.6.6,0,0,1-.815-.147l-3.471-4.618a.941.941,0,0,1,.24-1.338h0a.94.94,0,0,1,1.325.3l2.9,5A.6.6,0,0,1,187.321,247.8Z" transform="translate(-179.989 -237.247)" fill="#abb8ec"/>
            <path id="Path_238" data-name="Path 238" d="M188.979,249.188a.61.61,0,1,1-.845-.171A.61.61,0,0,1,188.979,249.188Z" transform="translate(-180.37 -237.808)" fill="#abb8ec"/>
          </g>
          <g id="Group_363" data-name="Group 363" transform="translate(41.507 14.839)">
            <circle id="Ellipse_5" data-name="Ellipse 5" cx="1.534" cy="1.534" r="1.534" transform="translate(0 87.827)" fill="none" stroke="#d2e8f9" stroke-miterlimit="10" stroke-width="1"/>
            <circle id="Ellipse_6" data-name="Ellipse 6" cx="1.534" cy="1.534" r="1.534" transform="translate(227.66 59.447)" fill="none" stroke="#d2e8f9" stroke-miterlimit="10" stroke-width="1"/>
            <circle id="Ellipse_7" data-name="Ellipse 7" cx="1.534" cy="1.534" r="1.534" transform="translate(106.871 16.468)" fill="none" stroke="#d2e8f9" stroke-miterlimit="10" stroke-width="1"/>
            <circle id="Ellipse_8" data-name="Ellipse 8" cx="1.534" cy="1.534" r="1.534" transform="translate(105.031 133.108)" fill="none" stroke="#d2e8f9" stroke-miterlimit="10" stroke-width="1"/>
            <g id="Group_360" data-name="Group 360" transform="translate(140.574 44.332)">
              <line id="Line_1" data-name="Line 1" y2="3.47" transform="translate(1.735)" fill="none" stroke="#d2e8f9" stroke-linecap="round" stroke-linejoin="round" stroke-width="1"/>
              <line id="Line_2" data-name="Line 2" x1="3.47" transform="translate(0 1.735)" fill="none" stroke="#d2e8f9" stroke-linecap="round" stroke-linejoin="round" stroke-width="1"/>
            </g>
            <g id="Group_361" data-name="Group 361" transform="translate(202.851)">
              <line id="Line_3" data-name="Line 3" y2="3.47" transform="translate(1.735)" fill="none" stroke="#d2e8f9" stroke-linecap="round" stroke-linejoin="round" stroke-width="1"/>
              <line id="Line_4" data-name="Line 4" x1="3.47" transform="translate(0 1.735)" fill="none" stroke="#d2e8f9" stroke-linecap="round" stroke-linejoin="round" stroke-width="1"/>
            </g>
            <g id="Group_362" data-name="Group 362" transform="translate(299.199 93.597)">
              <line id="Line_5" data-name="Line 5" y2="3.47" transform="translate(1.735)" fill="none" stroke="#d2e8f9" stroke-linecap="round" stroke-linejoin="round" stroke-width="1"/>
              <line id="Line_6" data-name="Line 6" x1="3.47" transform="translate(0 1.735)" fill="none" stroke="#d2e8f9" stroke-linecap="round" stroke-linejoin="round" stroke-width="1"/>
            </g>
          </g>
        </g>
        <g id="Group_369" data-name="Group 369" transform="translate(258.493 193.315)">
          <g id="Group_366" data-name="Group 366" transform="translate(0 0.802)">
            <path id="Path_239" data-name="Path 239" d="M399.641,399.552s-6.459,2.755-6.454,4.133c0,.791,8.881-.341,9.416-.876.856-.856-.346-3.138-.346-3.138Z" transform="translate(-387.007 -304.631)" fill="#102b45"/>
            <path id="Path_240" data-name="Path 240" d="M399.725,395.3l.414,3.971a1.212,1.212,0,0,0,1.118.713,1.879,1.879,0,0,0,1.5-.713l-.319-4.969" transform="translate(-387.505 -304.232)" fill="#102b45"/>
            <path id="Path_241" data-name="Path 241" d="M410,296.808c2.349,9.465,1.477,14.273-1.964,21.413-2.085,24.008-3.542,47.922-6.348,71.331l-2.966.17c-6.74-22.792-12.942-56.863-12.151-88.007" transform="translate(-386.498 -296.808)" fill="#032035"/>
          </g>
          <g id="Group_368" data-name="Group 368" transform="translate(19.658)">
            <path id="Path_243" data-name="Path 243" d="M427.516,400.552s-6.459,2.755-6.454,4.133c0,.791,8.881-.341,9.416-.876.856-.856-.346-3.138-.346-3.138Z" transform="translate(-408.788 -303.906)" fill="#102b45"/>
            <path id="Path_244" data-name="Path 244" d="M427.6,396.3l.414,3.971a1.212,1.212,0,0,0,1.118.713,1.879,1.879,0,0,0,1.5-.713l-.319-4.969" transform="translate(-409.285 -303.506)" fill="#102b45"/>
            <path id="Path_245" data-name="Path 245" d="M433.093,295.94c2.97,9.289,2.419,14.144-.542,21.5-.492,24.093-2.15,49.252-3.4,72.8H426.1c-8.233-22.3-17.053-56.717-18.325-87.846" transform="translate(-407.776 -295.94)" fill="#032035"/>
          </g>
        </g>
        <g id="Group_370" data-name="Group 370" transform="translate(238.38 129.755)">
          <path id="Path_249" data-name="Path 249" d="M394.564,246.652c-10.271,17.873-21.328,34.06-27.884,53.6l-1.953-1.038c.5-18.146,6.38-44.533,14.1-60.962" transform="translate(-364.727 -227.987)" fill="#fec4ad"/>
          <path id="Path_250" data-name="Path 250" d="M390.078,227.141a27.144,27.144,0,0,0-6.915,3.377,23.54,23.54,0,0,0-7.986,9.636,43.635,43.635,0,0,0-3.439,12.147,32.255,32.255,0,0,0,9.227,2.765,48.711,48.711,0,0,0,10.17,0" transform="translate(-365.261 -227.141)" fill="#abb8ec"/>
        </g>
        <g id="Group_371" data-name="Group 371" transform="translate(255.001 126.398)">
          <path id="Path_251" data-name="Path 251" d="M383.256,237.429c-1.093,19.33-.26,39.215.231,58.019,0,0,6.74,1.793,23.118,1.793,16.315,0,27-4.973,27-4.973-3.161-19.325-5.675-43.036-13.417-58.945,0,0-8.735-9.422-17.354-9.81a11.246,11.246,0,0,0-5.114,1.324c-1.216.565-6.8,1.932-6.8,1.932Z" transform="translate(-382.718 -223.507)" fill="#7c90e1"/>
        </g>
        <g id="Group_375" data-name="Group 375" transform="translate(221.788 181.085)">
          <path id="Path_253" data-name="Path 253" d="M400.832,307.947c27.36-3.034,38.836,31.644,45.066,45.1,14.727,31.8,70.291,28.252,95.612,28.252,33.163,0,47.718,11.177,32.239,17.039" transform="translate(-350.885 -284.61)" fill="none" stroke="#abb8ec" stroke-linecap="round" stroke-linejoin="round" stroke-width="5"/>
          <path id="Path_254" data-name="Path 254" d="M408.179,307.8c0,14.075-10.653,22.569-19.758,22.569H373.487V285.227h14.934C397.526,285.227,408.179,293.722,408.179,307.8Z" transform="translate(-348.802 -282.894)" fill="#fdae2b"/>
          <path id="Path_255" data-name="Path 255" d="M399.851,307.6c0,13.753-8.144,24.9-18.19,24.9H365.183V282.7h16.478C391.707,282.7,399.851,293.851,399.851,307.6Z" transform="translate(-348.17 -282.702)" fill="#ef8417"/>
          <path id="Path_256" data-name="Path 256" d="M405.8,294.93q-5.345,7.284-10.409,14.768a2.528,2.528,0,0,0,1.274-.667c0,.374-.6,1.022-.069,1.262s1.086-.377,1.636-.208c.516-.121,1-.769,1.377-1.142a2.824,2.824,0,0,0-.231.871c3.635-1.413,6.886-4.8,9.714-7.53A22.784,22.784,0,0,0,405.8,294.93Z" transform="translate(-350.47 -283.633)" fill="#fdae2b" opacity="0.5"/>
          <ellipse id="Ellipse_9" data-name="Ellipse 9" cx="18.19" cy="24.902" rx="18.19" ry="24.902" transform="translate(0 0)" fill="#ffc840"/>
          <g id="Group_374" data-name="Group 374" transform="translate(13.473 12.377)">
            <g id="Group_372" data-name="Group 372" transform="translate(0 17.649)">
              <path id="Path_257" data-name="Path 257" d="M367.588,318.9a3.164,3.164,0,1,1-3.118-3.7A3.447,3.447,0,0,1,367.588,318.9Z" transform="translate(-361.351 -315.203)" fill="#ef8417"/>
            </g>
            <g id="Group_373" data-name="Group 373">
              <path id="Path_258" data-name="Path 258" d="M367.588,299.8a3.164,3.164,0,1,1-3.118-3.7A3.447,3.447,0,0,1,367.588,299.8Z" transform="translate(-361.351 -296.099)" fill="#ef8417"/>
            </g>
          </g>
        </g>
        <path id="Path_259" data-name="Path 259" d="M426.48,253.661s1.155,11.763-4.1,21.544a98.084,98.084,0,0,1-20.652,25.157l-1.734-.422c2.512-9.641,10.442-26.76,10.936-33.178s.375-13.855.493-17.431" transform="translate(-129.032 -99.075)" fill="#fec4ad"/>
        <path id="Path_260" data-name="Path 260" d="M404.491,223.514s9.681.662,15.3,5.407c8.018,6.776,9.206,20.036,9.206,23.115-2.423,2.619-7.722,2.753-11.582,2.753a13.313,13.313,0,0,1-6.681-1.848l-.788-14.627" transform="translate(-129.375 -97.11)" fill="#abb8ec"/>
        <path id="Path_261" data-name="Path 261" d="M400.325,302.56a6.157,6.157,0,0,0-3.1,1.368c-.848.662-1.891,1.772-1.782,2.279.115.533,1.5-.492,1.674-.285s-2.38,4.056-1.9,4.344,2.648-3.2,2.648-3.2-2.105,3.725-1.291,3.806c.681.068,2.55-3.457,2.55-3.457s-1.581,3.152-1.039,3.271,2.006-3.021,2.006-3.021-1.192,2.683-.734,2.728a5.538,5.538,0,0,0,1.9-2.928c.484-1.59,1.049-2.97.613-4.211" transform="translate(-128.665 -103.129)" fill="#ffb288"/>
        <g id="Group_377" data-name="Group 377" transform="translate(254.302 104.95)">
          <path id="Path_262" data-name="Path 262" d="M382.768,210.158c-.051.577-.074,1.158-.069,1.737a6.265,6.265,0,0,0,.894,3.6,3.785,3.785,0,0,0,2.078,1.458c.589.161,1.361.092,1.615-.463a1.507,1.507,0,0,0,.093-.636,17.075,17.075,0,0,0-1.227-6.289" transform="translate(-382.018 -200.997)" fill="#26387a"/>
          <path id="Path_263" data-name="Path 263" d="M397.441,210.943c-.83-3.237-3.442-7.771-7.693-6.861a7.771,7.771,0,0,0-5.913,4.936c-.938,3.04.583,6.576,2.4,9.058a7.506,7.506,0,0,0,2.506,2.324c2.461,1.272,5.782.229,7.453-1.89A8.724,8.724,0,0,0,397.441,210.943Z" transform="translate(-382.083 -200.571)" fill="#fec4ad"/>
          <path id="Path_264" data-name="Path 264" d="M392.092,220.359l1.389,5.076-1.891.892a4.616,4.616,0,0,0,4.3,1.506c5.8-.837,7.624-4.857,7.624-4.857l-3.274-.342-3.625-6.179" transform="translate(-382.695 -201.522)" fill="#fec4ad"/>
          <path id="Path_265" data-name="Path 265" d="M400.15,207.131a8.148,8.148,0,0,0-3.925-5.287c-3.433-2.085-8.319-2.252-11.375.62-1.741,1.635-4.872,7.433-1.13,8.584,1.169.359,2.372-.352,3.389-1.032l3.1-2.075a2.462,2.462,0,0,1,1.213-.522,1.815,1.815,0,0,1,1.6,1.288,16.836,16.836,0,0,1,.451,2.145,2.052,2.052,0,0,0,.777,1.3.955.955,0,0,0,1.345-.271,2.4,2.4,0,0,0,.038-1.065c-.006-.359.2-.8.554-.783a.63.63,0,0,1,.347.151c.9.7.61,2.113.91,3.218.04.145-.263,2.381-.163,2.493C400.17,215.225,400.442,208.726,400.15,207.131Z" transform="translate(-381.962 -200.291)" fill="#26387a"/>
          <path id="Path_266" data-name="Path 266" d="M397.03,211.072a.8.8,0,0,1,.737-.831,1.569,1.569,0,0,1,1.13.43,2.5,2.5,0,0,1,.945,1.821,2.811,2.811,0,0,1-.515,1.551,1.658,1.658,0,0,1-.831.731,1.313,1.313,0,0,1-1.3-.415" transform="translate(-383.109 -201.048)" fill="#fec4ad"/>
        </g>
        <g id="Group_381" data-name="Group 381" transform="translate(112.772 193.315)">
          <g id="Group_379" data-name="Group 379" transform="translate(28.152 2.018)">
            <path id="Path_267" data-name="Path 267" d="M285.4,399.4s6.23,1.038,6.4,2.407c.1.784-8.732,1.719-9.332,1.257-.959-.739.217-3.5.217-3.5Z" transform="translate(-260.979 -305.836)" fill="#102b45"/>
            <path id="Path_268" data-name="Path 268" d="M284.907,395.212l.511,3.937A1.214,1.214,0,0,1,284.4,400a1.879,1.879,0,0,1-1.577-.516l-.733-4.916" transform="translate(-260.979 -305.468)" fill="#102b45"/>
            <path id="Path_269" data-name="Path 269" d="M259.878,298.124c-1.113,9.688-1.174,14.345,3.156,20.984,2.052,9.375,5.2,18.971,7.584,28.569-1.025,11.461,6.16,29.719,10.026,42.758l2.794-.478c3.756-23.468,5.144-59.458,1.773-90.963" transform="translate(-259.239 -298.124)" fill="#032035"/>
            <path id="Path_271" data-name="Path 271" d="M282.277,398.459l-.432-1.7,3.6-.134.048,1.569Z" transform="translate(-260.96 -305.624)" fill="#032035"/>
          </g>
          <g id="Group_380" data-name="Group 380" transform="translate(0)">
            <path id="Path_272" data-name="Path 272" d="M232.893,399.526s4.874,3.522,4.442,4.762c-.248.71-8.176-2.227-8.492-2.875-.505-1.036,1.668-2.9,1.668-2.9Z" transform="translate(-228.767 -303.75)" fill="#102b45"/>
            <path id="Path_273" data-name="Path 273" d="M234.229,395.712,233,399.287a1.154,1.154,0,0,1-1.228.3,1.788,1.788,0,0,1-1.127-1.106l1.454-4.5" transform="translate(-228.909 -303.405)" fill="#102b45"/>
            <path id="Path_274" data-name="Path 274" d="M236.79,295.94c-2.97,9.289-2.419,14.144.543,21.5.179,8.8.268,17.7.369,26.611-6.269,15.694-7.262,29.776-6.469,44.72l3.024,1.121s18-31.379,21.314-43.783a205.056,205.056,0,0,0,6.537-43.719" transform="translate(-228.936 -295.94)" fill="#032035"/>
            <path id="Path_276" data-name="Path 276" d="M230.644,396.25l.479-2.019,3.87,1.8-.763,1.729Z" transform="translate(-228.909 -303.424)" fill="#032035"/>
          </g>
        </g>
        <g id="Group_382" data-name="Group 382" transform="translate(157.634 109.865)">
          <path id="Path_277" data-name="Path 277" d="M291.2,217.319l-2.425-2.07v-4.289c0-.665-.9-4.658-1.716-4.658s-1-1-1.405-.592.333,4.918,0,5.25-.764-2.142-1.072-1.835-.334,2.123-.334,3.051a6.169,6.169,0,0,0,1.479,3.376c.736.735,3.994,4.256,3.994,4.256Z" transform="translate(-277.854 -205.612)" fill="#fec4ad"/>
          <path id="Path_278" data-name="Path 278" d="M289.458,216.8,287.43,219.1s8.009,10.6,10.547,14.151a42.409,42.409,0,0,1-7.556-4.1c-3.767-2.47-7.545-3.78-10.158-3.78-5.548,0-2.644,18.287,3.792,20.963,12.209,1.836,25.893.674,27.988-3.617C315.149,236.361,297.254,221.379,289.458,216.8Z" transform="translate(-277.327 -206.463)" fill="#abb8ec"/>
        </g>
        <g id="Group_383" data-name="Group 383" transform="translate(118.206 127.706)">
          <path id="Path_280" data-name="Path 280" d="M248.982,230.834c-14.553,16.345-14.333,44.448-14.333,63.549,0,0,10.684,7.294,27,7.294,16.377,0,23.118-4.022,23.118-4.022.491-19.353-2.961-27.7.231-59.712,0,0-5.208-11.949-7.984-11.949s-13.636-1.071-13.636-1.071Z" transform="translate(-234.649 -224.923)" fill="#7c90e1"/>
        </g>
        <path id="Path_282" data-name="Path 282" d="M270.942,211.038c.541-3.3,2.891-8.009,7.205-7.476,2.71.334,4.808,2.205,6.324,4.4,1.3,1.879.809,3.677-1.041,8.435a12.251,12.251,0,0,1-2.849,3.335c-2.339,1.485-5.74.738-7.59-1.226A8.881,8.881,0,0,1,270.942,211.038Z" transform="translate(-119.196 -95.587)" fill="#fec4ad"/>
        <path id="Path_283" data-name="Path 283" d="M271.232,210.325c.621-.093,0-.5.279.068.176.361.227.467.579.584s.352.431.64.646c.449.334.83-.12,1.019-.505a4.342,4.342,0,0,0,.258-2.349c-.065-.608-.268-1.57.328-1.992.487-.346,1.563.155,2.065.3.774.225,1.54.475,2.311.71a13.747,13.747,0,0,0,5.777.8,5.6,5.6,0,0,0,4.292-2.7c.981-1.9-.98-4.379-2.979-4.382a7.758,7.758,0,0,0-1.532.317,1.183,1.183,0,0,1-.574.008c-.436-.128-.628-.618-.874-1a3.291,3.291,0,0,0-3.312-1.363,27,27,0,0,0-4.153,1.257,8.5,8.5,0,0,1-2.139.035,2.269,2.269,0,0,0-1.9,1.24c-.6-.633-1.952.917-2.287,1.326a10.909,10.909,0,0,0-1.982,6.649c-.035,1.984.3,4.871,2.471,5.67.92.337,1.5.517,1.538-.326a13.235,13.235,0,0,1-.581-3.339,1.766,1.766,0,0,1,.808-1.884" transform="translate(-118.91 -95.276)" fill="#26387a"/>
        <path id="Path_284" data-name="Path 284" d="M278.217,219.752l-.474,4.984,1.638.464a4.613,4.613,0,0,1-3.722,2.618c-5.809.774-9.914-3.689-9.914-3.689l1.939-.375,2.935-9.254" transform="translate(-118.811 -96.423)" fill="#fec4ad"/>
        <path id="Path_285" data-name="Path 285" d="M272.422,211.122a.8.8,0,0,0-.807-.763,1.575,1.575,0,0,0-1.088.528c-1.624,1.618.418,5.56,2.02,3.524" transform="translate(-119.129 -96.108)" fill="#fec4ad"/>
        <path id="Path_286" data-name="Path 286" d="M283.542,217.286c-.261.611-1.291.855-1.855.916-2.733.3-5-1.464-7.616-1.788a1.391,1.391,0,0,0-1.9,1.626,17.076,17.076,0,0,0,.032,1.833,3.527,3.527,0,0,0,.421,1.515c1.181,1.967,5.123,2.3,7.121,2.177a4.176,4.176,0,0,0,2.279-.683c.9-.678,1.095-1.864,1.431-2.907A5.759,5.759,0,0,0,283.542,217.286Z" transform="translate(-119.299 -96.566)" fill="#26387a"/>
        <path id="Path_287" data-name="Path 287" d="M282.017,219.644a.542.542,0,0,0-.29-.105,26.593,26.593,0,0,1-2.979-.383,1.394,1.394,0,0,0-.507.025,1.038,1.038,0,0,0-.629.831.7.7,0,0,0,.433.8,4.58,4.58,0,0,0,1.913.418,2.744,2.744,0,0,0,1.792-.321C282.02,220.683,282.417,219.932,282.017,219.644Z" transform="translate(-119.713 -96.777)" fill="#fec4ad"/>
        <g id="Group_388" data-name="Group 388" transform="translate(35.194 167.846)">
          <path id="Path_288" data-name="Path 288" d="M259.888,297.763c-31.793-1.663-50.3,14.745-63.448,44.631-17.06,38.783-40.9,41.881-51.645,41.669" transform="translate(-144.795 -270.6)" fill="none" stroke="#abb8ec" stroke-linecap="round" stroke-linejoin="round" stroke-width="5"/>
          <path id="Path_289" data-name="Path 289" d="M256.163,298.484c1.17,14.026,12.491,21.605,21.565,20.849l14.882-1.242-3.753-44.982-14.881,1.241C264.9,275.107,254.993,284.457,256.163,298.484Z" transform="translate(-153.268 -268.732)" fill="#fdae2b"/>
          <path id="Path_290" data-name="Path 290" d="M264.462,297.6c1.143,13.706,10.186,24.139,20.2,23.3l16.421-1.369-4.14-49.632-16.421,1.369C270.507,272.106,263.318,283.894,264.462,297.6Z" transform="translate(-153.898 -268.487)" fill="#ef8417"/>
          <ellipse id="Ellipse_10" data-name="Ellipse 10" cx="18.19" cy="24.902" rx="18.19" ry="24.902" transform="translate(123.742 3.024) rotate(-4.768)" fill="#ffc840"/>
          <g id="Group_386" data-name="Group 386" transform="translate(141.675 13.705)">
            <g id="Group_384" data-name="Group 384" transform="translate(1.467 17.588)">
              <path id="Path_291" data-name="Path 291" d="M299.75,306.2a3.164,3.164,0,1,0,2.8-3.947A3.447,3.447,0,0,0,299.75,306.2Z" transform="translate(-299.734 -302.243)" fill="#fdae2b"/>
            </g>
            <g id="Group_385" data-name="Group 385">
              <path id="Path_292" data-name="Path 292" d="M298.162,287.161a3.164,3.164,0,1,0,2.8-3.947A3.447,3.447,0,0,0,298.162,287.161Z" transform="translate(-298.146 -283.205)" fill="#fdae2b"/>
            </g>
          </g>
          <g id="Group_387" data-name="Group 387" transform="translate(143.715 12.842)">
            <path id="Path_293" data-name="Path 293" d="M301.953,289.395l23.21-1.935a2.587,2.587,0,0,0,2.348-2.8h0a2.585,2.585,0,0,0-2.779-2.375l-23.211,1.936C299.745,284.364,300.084,289.551,301.953,289.395Z" transform="translate(-300.355 -282.271)" fill="#e2e8ed"/>
            <path id="Path_294" data-name="Path 294" d="M303.541,308.433l23.21-1.935a2.587,2.587,0,0,0,2.348-2.8h0a2.585,2.585,0,0,0-2.779-2.375l-23.211,1.935C301.333,303.4,301.672,308.589,303.541,308.433Z" transform="translate(-300.476 -283.721)" fill="#e2e8ed"/>
          </g>
        </g>
        <g id="Group_389" data-name="Group 389" transform="translate(123.28 127.706)">
          <path id="Path_295" data-name="Path 295" d="M241.763,253.661s-1.155,11.763,4.1,21.544a98.065,98.065,0,0,0,20.652,25.157l1.734-.422c-2.512-9.641-10.443-26.76-10.937-33.178s-.374-13.855-.493-17.431" transform="translate(-240.256 -226.781)" fill="#ffb288"/>
          <path id="Path_296" data-name="Path 296" d="M263.8,224.923s-10.2.589-16.068,5.02c-10.142,7.662-8.152,28.238-5.2,38.3s17.157,25.155,21.745,28.407c.752,0,2.961-.187,2.882-1.917-2.537-7.844-9.771-28.476-9.771-28.476l1.143-27.834" transform="translate(-240.141 -224.923)" fill="#abb8ec"/>
          <path id="Path_297" data-name="Path 297" d="M269.543,302.56a6.161,6.161,0,0,1,3.1,1.368c.848.662,1.891,1.772,1.782,2.279-.115.533-1.5-.492-1.674-.285s2.379,4.056,1.9,4.344-2.648-3.2-2.648-3.2,2.105,3.725,1.291,3.806c-.682.068-2.55-3.457-2.55-3.457s1.58,3.152,1.039,3.271-2.007-3.021-2.007-3.021,1.193,2.683.734,2.728a5.55,5.55,0,0,1-1.9-2.928c-.484-1.59-1.049-2.97-.612-4.211" transform="translate(-242.25 -230.835)" fill="#ffb288"/>
        </g>
        <path id="Path_300" data-name="Path 300" d="M476.358,212.531,478,211.409a27.171,27.171,0,0,1,1.18-4.208,10.043,10.043,0,0,1,2.245-2.727c.4-.27,2.226-1.3,2.687-.842.226.226-.543,2.293-.9,2.646s-1.392,1.936-1.231,2.432,1.026-.589,1.231-.794.48-.458.576-.194a7.314,7.314,0,0,1-1.485,3.648,4.641,4.641,0,0,1-2.705,1.4l-2.546,2.25" transform="translate(-134.848 -95.587)" fill="#fec4ad"/>
        <path id="Path_301" data-name="Path 301" d="M496.19,200.417a11.6,11.6,0,0,1,5.041,7.622,3.171,3.171,0,0,0,.589,1.533,3.383,3.383,0,0,0,1.124.675,9.259,9.259,0,0,1,4.76,5.414c.338,1,.074,2.4.467,3.255.481,1.043,2.252,1.28,3.2,1.6a7.261,7.261,0,0,1,.141,13.737,4.474,4.474,0,0,1,.516,3.767,8.75,8.75,0,0,1-1.988,3.353,18.543,18.543,0,0,1-14.538,6,13.613,13.613,0,0,1-4.57-.915,18.494,18.494,0,0,1-4.455-2.848,13.956,13.956,0,0,1-4.222-4.726c-.9-1.935-.838-4.466.682-5.962a4.629,4.629,0,0,1-4.618-2.085,6.763,6.763,0,0,1-.77-5.179,12.881,12.881,0,0,1,2.393-4.774,7.4,7.4,0,0,0,1.781-3.281c.267-2.085-.9-3.948-1.2-6.022-.47-3.227-.324-6,2.439-7.716.886-2.3,1.96-4.071,4.5-4.749A11.187,11.187,0,0,1,496.19,200.417Z" transform="translate(-134.924 -95.223)" fill="#26387a"/>
        <path id="Path_302" data-name="Path 302" d="M487.673,225.972c-9.215-2.413-19.765,1.4-22.115,1.388,3.22-3.22,9.13-10.387,11.171-12.864a2.256,2.256,0,0,0-1.033-2.177s-25.278,13.071-22.738,21.606c2.652,8.911,27.417,4.538,29.4,7.1" transform="translate(-133.052 -96.257)" fill="#abb8ec"/>
        <g id="Group_391" data-name="Group 391" transform="translate(339.083 200.578)">
          <path id="Path_303" data-name="Path 303" d="M491.074,315.894c-.028.754-3.328,16.982-3.571,18.724-.707,5.071,1.972,10.159,1.712,18.021-.317,9.558-4.383,35.248-4.9,36.387s-3,.1-3,.1-7.145-34.463-7.548-48.565c-.333-11.616,1.355-36.755,1.355-36.755" transform="translate(-473.73 -303.801)" fill="#fec4ad"/>
          <path id="Path_304" data-name="Path 304" d="M484.86,396.527a4.162,4.162,0,0,1,.4,1.267c-.053,1.071-.087,1.8-.087,1.8l-.465.031-.162-.873a7.368,7.368,0,0,0-2.493,1.043,8.98,8.98,0,0,1-4.144.115.619.619,0,0,1-.2-.987c.176-.205,3.49-1.653,3.49-1.653" transform="translate(-474.02 -310.862)" fill="#102b45"/>
          <path id="Path_305" data-name="Path 305" d="M481.728,396.1c-.268.648-2.886,2.074-2.644,2.265a6.119,6.119,0,0,0,3.452-.361c1.538-.512,2.409-1.086,2.458-1.488l-.295-1.083" transform="translate(-474.136 -310.778)" fill="#fec4ad"/>
        </g>
        <g id="Group_392" data-name="Group 392" transform="translate(362.565 201.745)">
          <path id="Path_306" data-name="Path 306" d="M515.944,316.665c0,.755-2.809,17.076-3,18.824-.552,5.09,2.281,10.093,2.261,17.96-.026,9.563-3.306,35.365-3.788,36.52s-2.991.186-2.991.186-8.192-34.229-9.025-48.312c-.686-11.6.235-36.779.235-36.779" transform="translate(-499.148 -305.064)" fill="#fec4ad"/>
          <path id="Path_307" data-name="Path 307" d="M512.122,397.435a4.156,4.156,0,0,1,.433,1.254c-.02,1.073-.032,1.8-.032,1.8l-.464.045-.187-.868a7.381,7.381,0,0,0-2.461,1.119,8.982,8.982,0,0,1-4.139.242.619.619,0,0,1-.23-.98c.171-.211,3.439-1.758,3.439-1.758" transform="translate(-499.585 -312.098)" fill="#102b45"/>
          <path id="Path_308" data-name="Path 308" d="M508.978,397.106c-.249.656-2.821,2.161-2.575,2.345a6.113,6.113,0,0,0,3.439-.467c1.522-.558,2.375-1.158,2.412-1.562l-.327-1.074" transform="translate(-499.699 -312.015)" fill="#fec4ad"/>
        </g>
        <path id="Path_309" data-name="Path 309" d="M505.326,272.342s7.323,4.8,10.114,16.3c3.764,15.518-1.78,45.9-1.78,45.9a93.7,93.7,0,0,1-23.946,3.247c-12.476-.106-19.867-4.322-19.892-5.077s-1.861-23.758.674-39.365c2.845-17.516,10.094-22.238,10.094-22.238" transform="translate(-134.299 -100.734)" fill="#032035"/>
        <g id="Group_394" data-name="Group 394" transform="translate(341.973 129.119)">
          <g id="Group_393" data-name="Group 393" transform="translate(0)">
            <path id="Path_310" data-name="Path 310" d="M495.984,226.754c1.135-.422,4.081.61,9.6,2.723,2.422,2.621,3.484,8.365,4.007,13.449-1.43,12.374-3.027,19.13-2.258,23.306.183.989,1.089,1.739.945,3.118-.3,2.854-4.972,3.287-13.842,4.294s-16.856-3.022-16.376-4.28,1.992-2.361,2.231-3.195.965-11.435.006-12.694-3.432-4.878-3.432-8.4c0-4.963,2.732-7.189,4.52-9.917,2.979-4.544,5.242-7.394,8.127-8.107C494.124,225.908,495.984,226.754,495.984,226.754Z" transform="translate(-476.859 -226.452)" fill="#7c90e1"/>
          </g>
        </g>
        <path id="Path_312" data-name="Path 312" d="M494.388,219.026c2.421-2.4,2.8-6.969,1.7-10.052-1.24-3.472-6.186-6.073-9.592-3.9C479.813,209.344,486.6,226.764,494.388,219.026Z" transform="translate(-135.412 -95.645)" fill="#fec4ad"/>
        <path id="Path_313" data-name="Path 313" d="M490.274,219.684l.126,7.426s-.278,1.651,2.626,1.754c3.98.142,3.98-2.716,3.98-2.716l-2.3-7.651" transform="translate(-135.907 -96.728)" fill="#fec4ad"/>
        <path id="Path_314" data-name="Path 314" d="M492.687,201.557a2.259,2.259,0,0,0-2.54-.062,15.177,15.177,0,0,1-1.431,1.061,8.634,8.634,0,0,1-1.267.315,7.2,7.2,0,0,0-4.573,3.836c-.819,1.85-.556,4.858.975,6.179a9.233,9.233,0,0,1,1.126-4.7,2.063,2.063,0,0,1,1.777-1.177c.838.094,1.293.99,1.9,1.579a5.958,5.958,0,0,0,3.44,1.252c1.368.2,2.424.445,3.1,1.789a8.832,8.832,0,0,1,.61,1.859,12.541,12.541,0,0,1,.418,2.287,5.557,5.557,0,0,0,.152,1.436,3.178,3.178,0,0,0,2.147,1.777c.7.236,1.884.456,2.324-.339a8.087,8.087,0,0,0,.811-2.347,10.543,10.543,0,0,0-1.716-7.221c-1.477-2.35-3.579-3.925-5.476-5.88A11.822,11.822,0,0,0,492.687,201.557Z" transform="translate(-135.309 -95.406)" fill="#26387a"/>
        <path id="Path_315" data-name="Path 315" d="M495.551,213.861a1.587,1.587,0,0,1,1.149-1.233c1.89-.286,1.6,2.537.873,3.529-.425.578-1.525,1.335-2.022-.272" transform="translate(-136.309 -96.279)" fill="#fec4ad"/>
        <g id="Group_395" data-name="Group 395" transform="translate(361.098 128.808)">
          <path id="Path_316" data-name="Path 316" d="M516.769,276.548l-.89,1.9s-3.356.8-3.712,1.389a8.484,8.484,0,0,0-1.406,2.961c0,.734.07,3.958.99,3.958.577,0,1.929-2.629,2.208-3,.658-.868,3.313-1.5,3.313-3.786l1.625-3.427" transform="translate(-498.565 -229.956)" fill="#fec4ad"/>
          <path id="Path_317" data-name="Path 317" d="M497.56,226.631s7.833-1.994,13.954,1.869c4.757,3,17,17.936,17,26.489,0,5.767-11.447,20.05-11.447,20.05l-1.9-1.359s1.108-11.225,4.435-17.412c-2.454-2.455-12.023-10.076-14.427-12.479" transform="translate(-497.56 -226.116)" fill="#abb8ec"/>
        </g>
      </g>
    </g>
  </g>
</svg>
